<svg id="visual" viewBox="0 0 900 600" width="900" height="600" xmlns="http://www.w3.org/2000/svg" xmlns:xlink="http://www.w3.org/1999/xlink" version="1.1"><rect x="0" y="0" width="900" height="600" fill="#e7e8d1"></rect><path d="M246 600L223 600L223 573L235 573L235 545L214 545L214 518L211 518L211 491L275 491L275 464L283 464L283 436L226 436L226 409L228 409L228 382L236 382L236 355L260 355L260 327L268 327L268 300L284 300L284 273L276 273L276 245L286 245L286 218L219 218L219 191L235 191L235 164L224 164L224 136L280 136L280 109L239 109L239 82L281 82L281 55L283 55L283 27L271 27L271 0L900 0L900 27L900 27L900 55L900 55L900 82L900 82L900 109L900 109L900 136L900 136L900 164L900 164L900 191L900 191L900 218L900 218L900 245L900 245L900 273L900 273L900 300L900 300L900 327L900 327L900 355L900 355L900 382L900 382L900 409L900 409L900 436L900 436L900 464L900 464L900 491L900 491L900 518L900 518L900 545L900 545L900 573L900 573L900 600L900 600Z" fill="#a7beae"></path><path d="M294 600L310 600L310 573L335 573L335 545L338 545L338 518L310 518L310 491L282 491L282 464L318 464L318 436L284 436L284 409L295 409L295 382L304 382L304 355L343 355L343 327L273 327L273 300L318 300L318 273L334 273L334 245L320 245L320 218L339 218L339 191L343 191L343 164L319 164L319 136L285 136L285 109L326 109L326 82L303 82L303 55L337 55L337 27L284 27L284 0L900 0L900 27L900 27L900 55L900 55L900 82L900 82L900 109L900 109L900 136L900 136L900 164L900 164L900 191L900 191L900 218L900 218L900 245L900 245L900 273L900 273L900 300L900 300L900 327L900 327L900 355L900 355L900 382L900 382L900 409L900 409L900 436L900 436L900 464L900 464L900 491L900 491L900 518L900 518L900 545L900 545L900 573L900 573L900 600L900 600Z" fill="#a0b69d"></path><path d="M388 600L376 600L376 573L377 573L377 545L398 545L398 518L367 518L367 491L344 491L344 464L409 464L409 436L397 436L397 409L351 409L351 382L355 382L355 355L359 355L359 327L397 327L397 300L343 300L343 273L403 273L403 245L376 245L376 218L390 218L390 191L374 191L374 164L414 164L414 136L350 136L350 109L389 109L389 82L366 82L366 55L391 55L391 27L361 27L361 0L900 0L900 27L900 27L900 55L900 55L900 82L900 82L900 109L900 109L900 136L900 136L900 164L900 164L900 191L900 191L900 218L900 218L900 245L900 245L900 273L900 273L900 300L900 300L900 327L900 327L900 355L900 355L900 382L900 382L900 409L900 409L900 436L900 436L900 464L900 464L900 491L900 491L900 518L900 518L900 545L900 545L900 573L900 573L900 600L900 600Z" fill="#9cad8a"></path><path d="M470 600L442 600L442 573L473 573L473 545L454 545L454 518L458 518L458 491L464 491L464 464L443 464L443 436L416 436L416 409L468 409L468 382L474 382L474 355L459 355L459 327L420 327L420 300L460 300L460 273L435 273L435 245L405 245L405 218L454 218L454 191L411 191L411 164L422 164L422 136L452 136L452 109L468 109L468 82L420 82L420 55L459 55L459 27L417 27L417 0L900 0L900 27L900 27L900 55L900 55L900 82L900 82L900 109L900 109L900 136L900 136L900 164L900 164L900 191L900 191L900 218L900 218L900 245L900 245L900 273L900 273L900 300L900 300L900 327L900 327L900 355L900 355L900 382L900 382L900 409L900 409L900 436L900 436L900 464L900 464L900 491L900 491L900 518L900 518L900 545L900 545L900 573L900 573L900 600L900 600Z" fill="#9da477"></path><path d="M491 600L500 600L500 573L508 573L508 545L508 545L508 518L494 518L494 491L493 491L493 464L543 464L543 436L518 436L518 409L521 409L521 382L499 382L499 355L541 355L541 327L500 327L500 300L522 300L522 273L485 273L485 245L535 245L535 218L499 218L499 191L539 191L539 164L487 164L487 136L488 136L488 109L476 109L476 82L505 82L505 55L470 55L470 27L519 27L519 0L900 0L900 27L900 27L900 55L900 55L900 82L900 82L900 109L900 109L900 136L900 136L900 164L900 164L900 191L900 191L900 218L900 218L900 245L900 245L900 273L900 273L900 300L900 300L900 327L900 327L900 355L900 355L900 382L900 382L900 409L900 409L900 436L900 436L900 464L900 464L900 491L900 491L900 518L900 518L900 545L900 545L900 573L900 573L900 600L900 600Z" fill="#a09964"></path><path d="M545 600L546 600L546 573L584 573L584 545L557 545L557 518L612 518L612 491L600 491L600 464L587 464L587 436L607 436L607 409L576 409L576 382L545 382L545 355L600 355L600 327L554 327L554 300L600 300L600 273L546 273L546 245L576 245L576 218L542 218L542 191L590 191L590 164L604 164L604 136L608 136L608 109L563 109L563 82L594 82L594 55L577 55L577 27L578 27L578 0L900 0L900 27L900 27L900 55L900 55L900 82L900 82L900 109L900 109L900 136L900 136L900 164L900 164L900 191L900 191L900 218L900 218L900 245L900 245L900 273L900 273L900 300L900 300L900 327L900 327L900 355L900 355L900 382L900 382L900 409L900 409L900 436L900 436L900 464L900 464L900 491L900 491L900 518L900 518L900 545L900 545L900 573L900 573L900 600L900 600Z" fill="#a58d54"></path><path d="M650 600L641 600L641 573L655 573L655 545L634 545L634 518L633 518L633 491L624 491L624 464L614 464L614 436L675 436L675 409L655 409L655 382L614 382L614 355L635 355L635 327L623 327L623 300L614 300L614 273L665 273L665 245L649 245L649 218L657 218L657 191L654 191L654 164L628 164L628 136L641 136L641 109L601 109L601 82L656 82L656 55L610 55L610 27L663 27L663 0L900 0L900 27L900 27L900 55L900 55L900 82L900 82L900 109L900 109L900 136L900 136L900 164L900 164L900 191L900 191L900 218L900 218L900 245L900 245L900 273L900 273L900 300L900 300L900 327L900 327L900 355L900 355L900 382L900 382L900 409L900 409L900 436L900 436L900 464L900 464L900 491L900 491L900 518L900 518L900 545L900 545L900 573L900 573L900 600L900 600Z" fill="#aa8048"></path><path d="M717 600L666 600L666 573L681 573L681 545L708 545L708 518L732 518L732 491L672 491L672 464L684 464L684 436L702 436L702 409L726 409L726 382L710 382L710 355L671 355L671 327L734 327L734 300L717 300L717 273L670 273L670 245L723 245L723 218L688 218L688 191L701 191L701 164L674 164L674 136L715 136L715 109L684 109L684 82L667 82L667 55L698 55L698 27L713 27L713 0L900 0L900 27L900 27L900 55L900 55L900 82L900 82L900 109L900 109L900 136L900 136L900 164L900 164L900 191L900 191L900 218L900 218L900 245L900 245L900 273L900 273L900 300L900 300L900 327L900 327L900 355L900 355L900 382L900 382L900 409L900 409L900 436L900 436L900 464L900 464L900 491L900 491L900 518L900 518L900 545L900 545L900 573L900 573L900 600L900 600Z" fill="#b07141"></path><path d="M743 600L750 600L750 573L766 573L766 545L796 545L796 518L801 518L801 491L786 491L786 464L750 464L750 436L755 436L755 409L753 409L753 382L746 382L746 355L759 355L759 327L793 327L793 300L751 300L751 273L805 273L805 245L805 245L805 218L747 218L747 191L758 191L758 164L769 164L769 136L740 136L740 109L783 109L783 82L751 82L751 55L737 55L737 27L762 27L762 0L900 0L900 27L900 27L900 55L900 55L900 82L900 82L900 109L900 109L900 136L900 136L900 164L900 164L900 191L900 191L900 218L900 218L900 245L900 245L900 273L900 273L900 300L900 300L900 327L900 327L900 355L900 355L900 382L900 382L900 409L900 409L900 436L900 436L900 464L900 464L900 491L900 491L900 518L900 518L900 545L900 545L900 573L900 573L900 600L900 600Z" fill="#b5613f"></path><path d="M835 600L865 600L865 573L806 573L806 545L862 545L862 518L863 518L863 491L869 491L869 464L835 464L835 436L804 436L804 409L807 409L807 382L863 382L863 355L822 355L822 327L874 327L874 300L874 300L874 273L853 273L853 245L828 245L828 218L817 218L817 191L854 191L854 164L856 164L856 136L819 136L819 109L814 109L814 82L830 82L830 55L867 55L867 27L815 27L815 0L900 0L900 27L900 27L900 55L900 55L900 82L900 82L900 109L900 109L900 136L900 136L900 164L900 164L900 191L900 191L900 218L900 218L900 245L900 245L900 273L900 273L900 300L900 300L900 327L900 327L900 355L900 355L900 382L900 382L900 409L900 409L900 436L900 436L900 464L900 464L900 491L900 491L900 518L900 518L900 545L900 545L900 573L900 573L900 600L900 600Z" fill="#b85042"></path></svg>